<?xml version="1.0" encoding="utf-8"?>
<!-- Generator: Adobe Illustrator 24.1.2, SVG Export Plug-In . SVG Version: 6.00 Build 0)  -->
<svg version="1.1" id="Layer_1" xmlns="http://www.w3.org/2000/svg" xmlns:xlink="http://www.w3.org/1999/xlink" x="0px" y="0px"
	 viewBox="0 0 1280 800" style="enable-background:new 0 0 1280 800;" xml:space="preserve">
<style type="text/css">
	.st0{fill:{{ background }};}
	.st1{fill:{{ text_1 }};}
	.st2{font-family:'Consolas';}
	.st3{font-size:61.4718px;}
	.st4{fill:{{ text_2 }};}
	.st5{font-size:30.9636px;}
	.st6{fill:none;stroke:{{ icons }};stroke-width:3;stroke-miterlimit:10;}
	.st7{font-size:26.2136px;}
	.st8{fill:none;stroke:{{ lines }};stroke-width:3;stroke-miterlimit:10;}
	.st9{fill:{{ icons }};stroke:{{ icons }};stroke-width:2;stroke-miterlimit:10;}
	.st10{fill:none;stroke:{{ icons }};stroke-width:3;stroke-linecap:round;stroke-miterlimit:10;}
	.st11{fill:{{ icons }};stroke:{{ icons }};stroke-width:2;stroke-linecap:round;stroke-miterlimit:10;}
	.st12{fill:{{ text_3 }};}
	.st13{font-size:26px;}
	.st14{fill:none;stroke:{{ lines }};stroke-width:2;stroke-miterlimit:10;}
	.st15{fill:none;stroke:{{ lines }};stroke-width:7;stroke-linecap:round;stroke-miterlimit:10;}
</style>
<g>
	<path class="st0" d="M921.2,753H301.8c-24.2,0-43.8-19.6-43.8-43.8V178.8c0-24.2,19.6-43.8,43.8-43.8h619.5
		c24.2,0,43.8,19.6,43.8,43.8v530.5C965,733.4,945.4,753,921.2,753z"/>
</g>
<text transform="matrix(1 0 0 1 314.0684 235.1133)" class="st1 st2 st3">{{ name }}</text>
<text transform="matrix(1 0 0 1 314.458 277.6172)" class="st4 st2 st5">{{ desc1 }} </text>
<text transform="matrix(1 0 0 1 314.458 314.8172)" class="st4 st2 st5">{{ desc2 }} </text>
<text transform="matrix(1 0 0 1 314.458 352.0172)" class="st4 st2 st5">{{ desc3 }} </text>
<g>
	<g>
		<g>
			<g>
				<circle class="st6" cx="336.8" cy="383.5" r="4.5"/>
				<circle class="st6" cx="352" cy="383.5" r="4.5"/>
				<circle class="st6" cx="336.7" cy="402.5" r="4.5"/>
				<path class="st6" d="M352.1,387.5v0.8c0,3.6-2.9,6.6-6.6,6.6h-8.7v3.2v-10"/>
			</g>
		</g>
	</g>
	<text transform="matrix(1 0 0 1 371.1914 402.3516)" class="st1 st2 st7">{{ stars }}</text>
	<path class="st8" d="M433.1,419H325.5c-6.4,0-11.5-4.7-11.5-10.4v-28.2c0-5.8,5.2-10.4,11.5-10.4h107.7c6.4,0,11.5,4.7,11.5,10.4
		v28.2C444.6,414.3,439.4,419,433.1,419z"/>
</g>
<g>
	<path class="st9" d="M501.3,380.8l3.1,6.2c0.2,0.3,0.5,0.6,0.9,0.6l6.9,1c1,0.1,1.3,1.3,0.7,2l-5,4.8c-0.3,0.3-0.4,0.7-0.3,1
		l1.2,6.8c0.2,1-0.8,1.7-1.7,1.2l-6.1-3.2c-0.3-0.2-0.8-0.2-1.1,0l-6.1,3.2c-0.9,0.5-1.9-0.3-1.7-1.2l1.2-6.8c0.1-0.4-0.1-0.8-0.3-1
		l-5-4.8c-0.7-0.7-0.3-1.9,0.7-2l6.9-1c0.4-0.1,0.7-0.3,0.9-0.6l3.1-6.2C499.6,379.9,500.9,379.9,501.3,380.8z"/>
	<text transform="matrix(1 0 0 1 530.5098 400.4761)" class="st1 st2 st7">{{ forks }}</text>
	<path class="st8" d="M590.4,418.9H483c-6.4,0-11.4-4.7-11.4-10.4v-28.2c0-5.8,5.2-10.4,11.4-10.4h107.4c6.4,0,11.4,4.7,11.4,10.4
		v28.2C601.9,414.2,596.7,418.9,590.4,418.9z"/>
</g>
<g>
	<text transform="matrix(1 0 0 1 687.2797 398.4533)" class="st1 st2 st7">{{ watch }}</text>
	<g>
		<path class="st10" d="M642,390.9c7.1-5,11.5-10,18.6-10c5.2,0,13.4,6.8,18.5,10"/>
		<path class="st10" d="M642,390.9c7.1,5,11.5,10,18.6,10c5.2,0,13.4-6.8,18.5-10"/>
		<circle class="st11" cx="660" cy="391" r="2.9"/>
	</g>
	<path class="st8" d="M747,416.8H639.7c-6.4,0-11.4-4.7-11.4-10.4v-28.2c0-5.8,5.2-10.4,11.4-10.4H747c6.4,0,11.4,4.7,11.4,10.4
		v28.2C758.5,412.1,753.4,416.8,747,416.8z"/>
</g>
<g>
	<text transform="matrix(1 0 0 1 342.403 499.9761)" class="st12 st2 st13">Size   </text>
</g>
<g>
	<text transform="matrix(1 0 0 1 342.1561 533.9759)" class="st12 st2 st13">Issues</text>
</g>
<g>
	<text transform="matrix(1 0 0 1 342.1576 570.7271)" class="st12 st2 st13">Language </text>
</g>
<g>
	<text transform="matrix(1 0 0 1 342.3581 640.0889)" class="st12 st2 st13">Created </text>
</g>
<g>
	<text transform="matrix(1 0 0 1 340.9005 677.0885)" class="st12 st2 st13">Updated </text>
</g>
<path class="st14" d="M892.9,709.5H345.6c-20.2,0-36.6-16.4-36.6-36.6V490.1c0-20.2,16.4-36.6,36.6-36.6h547.2
	c20.2,0,36.6,16.4,36.6,36.6v182.7C929.5,693.1,913.1,709.5,892.9,709.5z"/>
<line class="st15" x1="498.5" y1="490.5" x2="498.5" y2="668.5"/>
<g>
	<text transform="matrix(1 0 0 1 525.2606 500.2872)" class="st12 st2 st13">{{ size }}  </text>
</g>
<g>
	<text transform="matrix(1 0 0 1 525.0137 534.2869)" class="st12 st2 st13">{{ issues }}</text>
</g>
<g>
	<text transform="matrix(1 0 0 1 525.0152 571.0381)" class="st12 st2 st13">{{ lang }}</text>
</g>
<g>
	<text transform="matrix(1 0 0 1 525.2157 640.4)" class="st12 st2 st13">{{ created }}</text>
</g>
<g>
	<text transform="matrix(1 0 0 1 523.7581 677.3996)" class="st12 st2 st13">{{ updated }} </text>
</g>
<g>
	<text transform="matrix(1 0 0 1 342.5885 606.4012)" class="st12 st2 st13">License</text>
</g>
<g>
	<text transform="matrix(1 0 0 1 525.4462 606.7123)" class="st12 st2 st13">{{ license }}</text>
</g>
</svg>
