<?xml version="1.0" encoding="utf-8"?>
<!-- Generator: Adobe Illustrator 24.1.2, SVG Export Plug-In . SVG Version: 6.00 Build 0)  -->
<svg version="1.1" id="Layer_1" xmlns="http://www.w3.org/2000/svg" xmlns:xlink="http://www.w3.org/1999/xlink" x="0px" y="0px" width="300px" height="262.16px"
	 viewBox="0 0 707.1 618" style="enable-background:new 0 0 707.1 618;" xml:space="preserve">
<style type="text/css">
	.st0{fill:{{ background }};}
	.st1a{fill:{{ text_1 }};}
	.st1{fill:{{ text_3 }};}
	.st2{font-family:'Consolas';}
	.st3{font-size:61.4718px;}
	.st4{fill:{{ text_4 }};}
	.st4a{fill:{{ text_2 }};}
	.st5{font-size:30.9636px;}
	.st6{fill:none;stroke:{{ icons }};stroke-width:3;stroke-miterlimit:10;}
	.st7{font-size:26.2136px;}
	.st8{fill:none;stroke:{{ lines }};stroke-width:3;stroke-miterlimit:10;}
	.st9{fill:{{ icons }};stroke:{{ icons }};stroke-width:2;stroke-miterlimit:10;}
	.st10{fill:none;stroke:{{ icons }};stroke-width:3;stroke-linecap:round;stroke-miterlimit:10;}
	.st11{fill:{{ icons }};stroke:{{ icons }};stroke-width:2;stroke-linecap:round;stroke-miterlimit:10;}
	.st12{font-size:26px;}
	.st13{fill:none;stroke:{{ lines }};stroke-width:2;stroke-miterlimit:10;}
	.st14{fill:none;stroke:{{ lines }};stroke-width:7;stroke-linecap:round;stroke-miterlimit:10;}
</style>


	<g>
	<path class="st0" d="M663.2,618H43.8C19.6,618,0,598.4,0,574.2V43.8C0,19.6,19.6,0,43.8,0h619.5c24.2,0,43.8,19.6,43.8,43.8v530.5
		C707,598.4,687.4,618,663.2,618z"/>
</g>
<text transform="matrix(1 0 0 1 56.0684 100.1133)" class="st1a st2 st3">{{ name }}</text>
<text transform="matrix(1 0 0 1 56.458 142.6172)" class="st4a st2 st5">{{ desc1 }}</text>
<text transform="matrix(1 0 0 1 56.458 179.8172)" class="st4a st2 st5">{{ desc2 }}</text>
<text transform="matrix(1 0 0 1 56.458 217.0172)" class="st4a st2 st5">{{ desc3 }}</text>
<g>
	<g>
		<g>
			<g>
				<circle class="st6" cx="78.8" cy="248.5" r="4.5"/>
				<circle class="st6" cx="94" cy="248.5" r="4.5"/>
				<circle class="st6" cx="78.7" cy="267.5" r="4.5"/>
				<path class="st6" d="M94.1,252.5v0.8c0,3.6-2.9,6.6-6.6,6.6h-8.7v3.2v-10"/>
			</g>
		</g>
	</g>
	<text transform="matrix(1 0 0 1 113.1914 267.3516)" class="st1 st2 st7">{{ stars }}</text>
	<path class="st8" d="M175.1,284H67.5c-6.4,0-11.5-4.7-11.5-10.4v-28.2c0-5.8,5.2-10.4,11.5-10.4h107.7c6.4,0,11.5,4.7,11.5,10.4
		v28.2C186.6,279.3,181.4,284,175.1,284z"/>
</g>
<g>
	<path class="st9" d="M243.3,245.8l3.1,6.2c0.2,0.3,0.5,0.6,0.9,0.6l6.9,1c1,0.1,1.3,1.3,0.7,2l-5,4.8c-0.3,0.3-0.4,0.7-0.3,1
		l1.2,6.8c0.2,1-0.8,1.7-1.7,1.2l-6.1-3.2c-0.3-0.2-0.8-0.2-1.1,0l-6.1,3.2c-0.9,0.5-1.9-0.3-1.7-1.2l1.2-6.8c0.1-0.4-0.1-0.8-0.3-1
		l-5-4.8c-0.7-0.7-0.3-1.9,0.7-2l6.9-1c0.4-0.1,0.7-0.3,0.9-0.6l3.1-6.2C241.6,244.9,242.9,244.9,243.3,245.8z"/>
	<text transform="matrix(1 0 0 1 272.5098 265.4761)" class="st1 st2 st7">{{ forks }}</text>
	<path class="st8" d="M332.4,283.9H225c-6.4,0-11.4-4.7-11.4-10.4v-28.2c0-5.8,5.2-10.4,11.4-10.4h107.4c6.4,0,11.4,4.7,11.4,10.4
		v28.2C343.9,279.2,338.7,283.9,332.4,283.9z"/>
</g>
<g>
	<text transform="matrix(1 0 0 1 429.2797 263.4533)" class="st1 st2 st7">{{ watch }}</text>
	<g>
		<path class="st10" d="M384,255.9c7.1-5,11.5-10,18.6-10c5.2,0,13.4,6.8,18.5,10"/>
		<path class="st10" d="M384,255.9c7.1,5,11.5,10,18.6,10c5.2,0,13.4-6.8,18.5-10"/>
		<circle class="st11" cx="402" cy="256" r="2.9"/>
	</g>
	<path class="st8" d="M489,281.8H381.7c-6.4,0-11.4-4.7-11.4-10.4v-28.2c0-5.8,5.2-10.4,11.4-10.4H489c6.4,0,11.4,4.7,11.4,10.4
		v28.2C500.5,277.1,495.4,281.8,489,281.8z"/>
</g>
<g>
	<text transform="matrix(1 0 0 1 84.403 364.9761)" class="st4 st2 st12">Size   </text>
</g>
<g>
	<text transform="matrix(1 0 0 1 84.1561 398.9759)" class="st4 st2 st12">Issues</text>
</g>
<g>
	<text transform="matrix(1 0 0 1 84.1576 435.7271)" class="st4 st2 st12">Language </text>
</g>
<g>
	<text transform="matrix(1 0 0 1 84.3581 505.0889)" class="st4 st2 st12">Created </text>
</g>
<g>
	<text transform="matrix(1 0 0 1 82.9005 542.0885)" class="st4 st2 st12">Updated </text>
</g>
<path class="st13" d="M634.9,574.5H87.6c-20.2,0-36.6-16.4-36.6-36.6V355.1c0-20.2,16.4-36.6,36.6-36.6h547.2
	c20.2,0,36.6,16.4,36.6,36.6v182.7C671.5,558.1,655.1,574.5,634.9,574.5z"/>
<line class="st14" x1="240.5" y1="355.5" x2="240.5" y2="533.5"/>
<g>
	<text transform="matrix(1 0 0 1 267.2606 365.2872)" class="st4 st2 st12">{{ size }}</text>
</g>
<g>
	<text transform="matrix(1 0 0 1 267.0137 399.2869)" class="st4 st2 st12">{{ issues }}</text>
</g>
<g>
	<text transform="matrix(1 0 0 1 267.0152 436.0381)" class="st4 st2 st12">{{ lang }}</text>
</g>
<g>
	<text transform="matrix(1 0 0 1 267.2157 505.4)" class="st4 st2 st12">{{ created }}</text>
</g>
<g>
	<text transform="matrix(1 0 0 1 265.7581 542.3996)" class="st4 st2 st12">{{ updated }}</text>
</g>
<g>
	<text transform="matrix(1 0 0 1 84.5885 471.4012)" class="st4 st2 st12">License</text>
</g>
<g>
	<text transform="matrix(1 0 0 1 267.4462 471.7123)" class="st4 st2 st12">{{ license }}</text>
</g>
</svg>
